<svg width="32" height="32" viewBox="0 0 32 32" fill="none" xmlns="http://www.w3.org/2000/svg">
<path d="M4 12.3046V19.6955C4 20.4027 4.28095 21.0809 4.78105 21.5811L10.4189 27.2189C10.9191 27.7191 11.5973 28 12.3046 28H19.6955C20.4027 28 21.0809 27.7191 21.5811 27.2189L27.2189 21.5811C27.7191 21.0809 28 20.4027 28 19.6955V12.3046C28 11.5973 27.7191 10.9191 27.2189 10.4189L21.5811 4.78105C21.0809 4.28095 20.4027 4 19.6955 4H12.3046C11.5973 4 10.9191 4.28095 10.4189 4.78105L4.78105 10.4189C4.28095 10.9191 4 11.5973 4 12.3046Z" stroke="#020202" stroke-width="2.66667" stroke-linecap="round" stroke-linejoin="round"/>
<path d="M16 10.6666V17.3333" stroke="#020202" stroke-width="2.66667" stroke-linecap="round"/>
<path d="M16 21.3334V21.3185" stroke="#020202" stroke-width="2.66667" stroke-linecap="round"/>
</svg>
