<svg width="60" height="60" viewBox="0 0 60 60" fill="none" xmlns="http://www.w3.org/2000/svg">
<path d="M44.9286 51H15.0725C13.5413 51.066 12.0201 50.7233 10.6651 50.0074C9.30997 49.2915 8.16975 48.228 7.36124 46.9263C6.55273 45.6243 6.10503 44.1305 6.06411 42.5986C6.02322 41.0664 6.39058 39.5513 7.12846 38.208L22.0564 12.264C22.884 10.8979 24.05 9.76833 25.4415 8.98435C26.8331 8.20036 28.4031 7.78845 30.0003 7.78845C31.5975 7.78845 33.1679 8.20036 34.5594 8.98435C35.9509 9.76833 37.1171 10.8979 37.9446 12.264L52.8726 38.208C53.6103 39.5513 53.9778 41.0664 53.9367 42.5986C53.8959 44.1305 53.4483 45.6243 52.6398 46.9263C51.8312 48.228 50.6907 49.2915 49.3357 50.0074C47.9807 50.7233 46.4595 51.066 44.9286 51Z" stroke="#FF9500" stroke-width="3.6" stroke-linecap="round" stroke-linejoin="round"/>
<path d="M27.314 41.16C27.314 40.805 27.3843 40.4534 27.5208 40.1258C27.6574 39.798 27.8576 39.5006 28.1098 39.2508C28.3618 39.001 28.6611 38.8034 28.9899 38.6698C29.3189 38.5361 29.6708 38.4689 30.026 38.472C30.5496 38.4816 31.0589 38.645 31.4902 38.9424C31.9212 39.2398 32.2553 39.6578 32.4504 40.1438C32.6453 40.6301 32.6926 41.1629 32.5865 41.6758C32.4802 42.1886 32.2251 42.6588 31.8531 43.0277C31.4811 43.3963 31.0085 43.6471 30.4947 43.7489C29.9808 43.8506 29.4485 43.7986 28.9642 43.5991C28.4796 43.3999 28.0649 43.0622 27.7714 42.6283C27.4779 42.1946 27.3188 41.6839 27.314 41.16ZM28.178 34.608L27.842 22.08C27.81 21.7789 27.8417 21.4744 27.9353 21.1863C28.0287 20.8983 28.1816 20.633 28.3841 20.4079C28.5867 20.1828 28.8344 20.0028 29.1108 19.8795C29.3876 19.7563 29.6871 19.6926 29.99 19.6926C30.2928 19.6926 30.5924 19.7563 30.8688 19.8795C31.1456 20.0028 31.393 20.1828 31.5956 20.4079C31.7981 20.633 31.9512 20.8983 32.0446 21.1863C32.138 21.4744 32.1699 21.7789 32.138 22.08L31.826 34.608C31.826 35.0916 31.6337 35.5558 31.2917 35.8978C30.9495 36.2398 30.4856 36.432 30.002 36.432C29.5181 36.432 29.0542 36.2398 28.7122 35.8978C28.3702 35.5558 28.178 35.0916 28.178 34.608Z" fill="#FF9500"/>
</svg>
