<svg width="20" height="20" viewBox="0 0 20 20" fill="none" xmlns="http://www.w3.org/2000/svg">
<path d="M19.1859 0.317306C18.7629 -0.105769 18.0769 -0.105769 17.6538 0.317306L9.75158 8.21956L1.84937 0.317306C1.4263 -0.105769 0.740369 -0.105769 0.317306 0.317306C-0.105769 0.740369 -0.105769 1.4263 0.317306 1.84937L8.21953 9.75161L0.317327 17.6538C-0.105747 18.0769 -0.105747 18.7628 0.317327 19.1859C0.740391 19.609 1.42632 19.609 1.84939 19.1859L9.75158 11.2837L17.6538 19.1859C18.0769 19.609 18.7629 19.609 19.1859 19.1859C19.6089 18.7628 19.6089 18.0769 19.1859 17.6539L11.2836 9.75161L19.1859 1.84937C19.6089 1.4263 19.6089 0.740369 19.1859 0.317306Z" fill="#020202"/>
</svg>
